<svg width="34" height="22" viewBox="0 0 34 22" fill="none" xmlns="http://www.w3.org/2000/svg">
<path d="M1 9.044C1.15872 8.78318 1.3909 8.71059 1.69146 8.71143C4.50374 8.71987 7.31601 8.7165 10.1283 8.7165C10.2128 8.71364 10.2974 8.7159 10.3816 8.72325C10.4993 8.72863 10.6106 8.77883 10.6925 8.86358C10.7745 8.94833 10.8209 9.06119 10.8223 9.17905C10.8389 9.29032 10.8135 9.40378 10.7511 9.49738C10.6887 9.59098 10.5937 9.65804 10.4846 9.6855C10.3746 9.71579 10.2608 9.72972 10.1469 9.72686C7.33261 9.72686 4.52034 9.72855 1.71003 9.73193C1.39681 9.73193 1.15281 9.65174 1.00591 9.36053L1 9.044Z" fill="black" stroke="black" stroke-width="0.1"/>
<path d="M23.8722 4.47424H29.1396C30.2372 4.47424 30.7606 4.82031 31.1853 5.81886C31.8388 7.35762 32.5032 8.89131 33.1373 10.4377C33.2708 10.7672 33.3421 11.1187 33.3475 11.4742C33.3669 13.4434 33.3576 15.4127 33.3568 17.3828C33.3568 18.3037 32.8274 18.8371 31.9139 18.843C31.5255 18.843 31.138 18.843 30.7572 18.843C30.6728 19.065 30.6137 19.2651 30.5268 19.455C30.0565 20.4789 29.0527 21.063 27.8935 20.9946C27.3702 20.958 26.8702 20.7647 26.4583 20.44C26.0465 20.1152 25.742 19.6741 25.5844 19.1739C25.5 18.8979 25.3767 18.8363 25.104 18.8363C21.9126 18.8473 18.7213 18.843 15.5299 18.843H15.1779C14.7557 20.2223 13.8768 21.0486 12.3918 20.987C11.0409 20.9304 10.2583 20.1201 9.88006 18.843H7.26872C6.11882 18.843 5.48815 18.2125 5.4873 17.0705C5.4873 16.1437 5.4873 15.2171 5.4873 14.2909C5.4873 13.8849 5.66798 13.6621 5.98711 13.6587C6.30625 13.6553 6.49368 13.8807 6.49368 14.2799C6.49368 15.2278 6.49368 16.1757 6.49368 17.1236C6.49368 17.6301 6.6963 17.8318 7.20287 17.8327C8.09695 17.8327 8.99104 17.8327 9.89019 17.8327C10.0709 17.1017 10.4356 16.5184 11.0587 16.1116C11.4052 15.8826 11.8004 15.7378 12.2128 15.6886C12.6253 15.6394 13.0435 15.6873 13.4341 15.8284C13.8248 15.9696 14.177 16.2 14.4628 16.5014C14.7485 16.8027 14.9599 17.1667 15.0799 17.5642C15.1297 17.7263 15.1551 17.8386 15.378 17.8377C17.8112 17.8284 20.2435 17.8318 22.6767 17.831C22.7274 17.831 22.7772 17.8217 22.8608 17.8124V17.463C22.8608 12.5875 22.8608 7.71213 22.8608 2.83672C22.8608 2.18171 22.6919 2.01121 22.0418 2.01121H7.31769C6.66253 2.01121 6.49874 2.18002 6.4979 2.8325C6.4979 3.28493 6.4979 3.7382 6.4979 4.19063C6.49368 4.5578 6.29105 4.78148 5.9812 4.77389C5.67135 4.76629 5.49237 4.55021 5.48899 4.19738C5.48899 3.65042 5.4797 3.10007 5.48899 2.5548C5.49388 2.15562 5.65083 1.77334 5.92787 1.48586C6.20491 1.19837 6.58117 1.02733 6.97998 1.0076C7.07454 1.00169 7.16994 1 7.2645 1C12.2046 1 17.1445 1 22.084 1C22.5653 1 23.0043 1.08947 23.3631 1.43132C23.5286 1.58687 23.6593 1.77566 23.7466 1.98529C23.8339 2.19492 23.8758 2.42065 23.8697 2.64765C23.873 3.24103 23.8722 3.83865 23.8722 4.47424ZM23.8882 17.831C24.3256 17.831 24.7325 17.8141 25.1428 17.8377C25.3961 17.8521 25.5 17.7719 25.5759 17.5254C25.7411 16.9884 26.0744 16.5185 26.5267 16.1851C26.979 15.8517 27.5265 15.6724 28.0885 15.6735C28.6556 15.6673 29.2098 15.8429 29.6698 16.1747C30.1297 16.5065 30.4712 16.9769 30.6441 17.517C30.6762 17.6149 30.7074 17.7128 30.7446 17.8284C31.1819 17.8284 31.6133 17.8453 32.0405 17.8158C32.1063 17.7982 32.1668 17.765 32.2169 17.719C32.267 17.673 32.3053 17.6156 32.3284 17.5516C32.3749 17.3574 32.3411 17.1431 32.3411 16.9177C32.0262 16.9177 31.7501 16.9312 31.4799 16.9177C30.9514 16.8848 30.6188 16.5589 30.5985 16.0306C30.5783 15.5157 30.5791 14.9991 30.5985 14.4842C30.6196 13.9288 30.9768 13.6021 31.5365 13.5928C31.7966 13.5886 32.0566 13.5928 32.3462 13.5928C32.3462 12.8771 32.358 12.1959 32.3403 11.5147C32.3367 11.2752 32.2895 11.0384 32.201 10.8158C31.5627 9.26946 30.8873 7.7383 30.2541 6.19363C30.0438 5.68212 29.7129 5.47363 29.1666 5.47869C27.5144 5.49558 25.8622 5.4846 24.2091 5.48545C24.1078 5.48545 24.0056 5.49558 23.8882 5.50148V17.831ZM12.5235 19.991C12.8498 19.99 13.1685 19.8925 13.4396 19.7108C13.7106 19.5291 13.9218 19.2712 14.0466 18.9698C14.1714 18.6683 14.2042 18.3367 14.1409 18.0167C14.0776 17.6966 13.921 17.4024 13.6908 17.1712C13.4607 16.9399 13.1672 16.7818 12.8474 16.7169C12.5276 16.652 12.1958 16.6831 11.8936 16.8064C11.5915 16.9296 11.3325 17.1395 11.1494 17.4095C10.9663 17.6795 10.8671 17.9977 10.8645 18.3239C10.8635 18.5424 10.9056 18.759 10.9886 18.9611C11.0715 19.1633 11.1935 19.3471 11.3476 19.502C11.5018 19.6568 11.685 19.7798 11.8868 19.8637C12.0886 19.9476 12.3049 19.9909 12.5235 19.991ZM26.454 18.3239C26.4512 18.6503 26.5451 18.9703 26.7239 19.2434C26.9026 19.5165 27.1583 19.7307 27.4585 19.8588C27.7588 19.987 28.0903 20.0234 28.4113 19.9635C28.7322 19.9036 29.0283 19.7501 29.2621 19.5223C29.496 19.2945 29.6571 19.0026 29.7253 18.6834C29.7935 18.3642 29.7657 18.0319 29.6453 17.7285C29.525 17.4251 29.3175 17.164 29.049 16.9783C28.7805 16.7925 28.4631 16.6904 28.1366 16.6847C27.9177 16.6788 27.6998 16.7169 27.4958 16.7967C27.2918 16.8764 27.1059 16.9963 26.9491 17.1491C26.7922 17.3019 26.6676 17.4846 26.5825 17.6864C26.4975 17.8882 26.4538 18.105 26.454 18.3239ZM31.6235 14.6167V15.8904H32.3293V14.6167H31.6235Z" fill="black" stroke="black" stroke-width="0.1"/>
<path d="M8.31911 6.83254H4.15262C4.04777 6.83935 3.9425 6.83511 3.83855 6.81987C3.72165 6.80307 3.61469 6.74479 3.53719 6.65569C3.4597 6.56659 3.41683 6.4526 3.41641 6.33453C3.41512 6.21201 3.45829 6.09319 3.53793 6.00006C3.61756 5.90694 3.72827 5.84584 3.84952 5.82808C3.89123 5.82271 3.9333 5.82073 3.97532 5.82217C6.87906 5.82217 9.78251 5.82217 12.6857 5.82217C13.0234 5.82217 13.2522 6.04079 13.2463 6.32862C13.2404 6.61645 13.0141 6.8241 12.6705 6.82494C11.2212 6.83225 9.77069 6.83479 8.31911 6.83254Z" fill="black" stroke="black" stroke-width="0.1"/>
<path d="M7.3821 11.5991C8.77065 11.5991 10.1592 11.5991 11.5477 11.5991C11.6632 11.5946 11.7788 11.6011 11.8931 11.6186C12.0069 11.6396 12.1098 11.7 12.1836 11.7893C12.2574 11.8786 12.2974 11.9909 12.2966 12.1067C12.2958 12.2225 12.2542 12.3343 12.1792 12.4226C12.1042 12.5108 12.0005 12.5698 11.8863 12.5892C11.7716 12.605 11.6559 12.6115 11.5401 12.6087H3.24178C2.72255 12.6087 2.48194 12.4525 2.47012 12.1157C2.4583 11.7789 2.7158 11.5983 3.24854 11.5983L7.3821 11.5991Z" fill="black" stroke="black" stroke-width="0.1"/>
<path d="M27.9787 11.3771C27.0522 11.3771 26.1261 11.3771 25.2002 11.3771C24.6936 11.3771 24.5188 11.2032 24.518 10.6917C24.518 9.39745 24.518 8.10319 24.518 6.80893C24.518 6.31008 24.6869 6.13367 25.1749 6.13367C26.459 6.13367 27.7423 6.13957 29.0264 6.1286C29.37 6.1286 29.5693 6.26028 29.7018 6.57512C30.2472 7.88429 30.8078 9.18671 31.3608 10.4925C31.6023 11.0631 31.4031 11.372 30.7901 11.3737C29.8521 11.3788 28.915 11.3771 27.9787 11.3771ZM25.5565 7.14656V10.3541H30.1561C30.1603 10.3254 30.1713 10.3017 30.1645 10.2857C29.7424 9.27871 29.3202 8.27172 28.8829 7.2698C28.8589 7.23467 28.8272 7.20552 28.7902 7.18459C28.7531 7.16366 28.7118 7.15152 28.6693 7.1491C27.6384 7.14403 26.6076 7.14656 25.5565 7.14656Z" fill="black" stroke="black" stroke-width="0.1"/>
<path d="M13.2605 18.3458C13.2568 18.5414 13.1762 18.7277 13.0363 18.8645C12.8963 19.0012 12.7082 19.0775 12.5125 19.0768C12.4156 19.0743 12.3201 19.0526 12.2316 19.0129C12.1431 18.9733 12.0633 18.9165 11.9969 18.8459C11.9305 18.7752 11.8787 18.6921 11.8446 18.6014C11.8105 18.5106 11.7948 18.414 11.7983 18.3171C11.8018 18.1267 11.8801 17.9454 12.0163 17.8122C12.1525 17.6791 12.3356 17.6048 12.526 17.6055C12.623 17.6055 12.719 17.6247 12.8085 17.662C12.898 17.6993 12.9792 17.7539 13.0475 17.8227C13.1158 17.8915 13.1698 17.9732 13.2063 18.063C13.2429 18.1527 13.2613 18.2489 13.2605 18.3458Z" fill="black" stroke="black" stroke-width="0.1"/>
<path d="M28.8424 18.3299C28.8429 18.5259 28.7661 18.7143 28.6286 18.8541C28.4911 18.994 28.304 19.074 28.1079 19.0769C27.9119 19.0734 27.7249 18.9935 27.5868 18.8543C27.4487 18.7152 27.3703 18.5276 27.3683 18.3315C27.3683 18.1361 27.446 17.9487 27.5842 17.8105C27.7224 17.6723 27.9099 17.5947 28.1054 17.5947C28.3009 17.5947 28.4883 17.6723 28.6266 17.8105C28.7648 17.9487 28.8424 18.1361 28.8424 18.3315V18.3299Z" fill="black" stroke="black" stroke-width="0.1"/>
</svg>
